<svg width="24" height="24" viewBox="0 0 24 24" fill="currentColor" xmlns="http://www.w3.org/2000/svg">
<g id="ArrowsOutCardinal">
<path id="Vector" d="M8.46935 5.78062C8.39962 5.71097 8.3443 5.62825 8.30656 5.5372C8.26882 5.44615 8.24939 5.34856 8.24939 5.24999C8.24939 5.15143 8.26882 5.05384 8.30656 4.96279C8.3443 4.87174 8.39962 4.78902 8.46935 4.71937L11.4694 1.71937C11.539 1.64964 11.6217 1.59432 11.7128 1.55658C11.8038 1.51883 11.9014 1.4994 12 1.4994C12.0985 1.4994 12.1961 1.51883 12.2872 1.55658C12.3782 1.59432 12.4609 1.64964 12.5306 1.71937L15.5306 4.71937C15.6713 4.8601 15.7504 5.05097 15.7504 5.24999C15.7504 5.44902 15.6713 5.63989 15.5306 5.78062C15.3899 5.92135 15.199 6.00041 15 6.00041C14.801 6.00041 14.6101 5.92135 14.4694 5.78062L12.75 4.06031V9C12.75 9.19891 12.671 9.38967 12.5303 9.53032C12.3897 9.67098 12.1989 9.75 12 9.75C11.8011 9.75 11.6103 9.67098 11.4697 9.53032C11.329 9.38967 11.25 9.19891 11.25 9V4.06031L9.53061 5.78062C9.46095 5.85035 9.37823 5.90567 9.28718 5.94341C9.19614 5.98116 9.09854 6.00059 8.99998 6.00059C8.90142 6.00059 8.80382 5.98116 8.71277 5.94341C8.62173 5.90567 8.53901 5.85035 8.46935 5.78062ZM14.4694 18.2194L12.75 19.9397V15C12.75 14.8011 12.671 14.6103 12.5303 14.4697C12.3897 14.329 12.1989 14.25 12 14.25C11.8011 14.25 11.6103 14.329 11.4697 14.4697C11.329 14.6103 11.25 14.8011 11.25 15V19.9397L9.53061 18.2194C9.38987 18.0786 9.199 17.9996 8.99998 17.9996C8.80096 17.9996 8.61009 18.0786 8.46935 18.2194C8.32862 18.3601 8.24956 18.551 8.24956 18.75C8.24956 18.949 8.32862 19.1399 8.46935 19.2806L11.4694 22.2806C11.539 22.3504 11.6217 22.4057 11.7128 22.4434C11.8038 22.4812 11.9014 22.5006 12 22.5006C12.0985 22.5006 12.1961 22.4812 12.2872 22.4434C12.3782 22.4057 12.4609 22.3504 12.5306 22.2806L15.5306 19.2806C15.6713 19.1399 15.7504 18.949 15.7504 18.75C15.7504 18.551 15.6713 18.3601 15.5306 18.2194C15.3899 18.0786 15.199 17.9996 15 17.9996C14.801 17.9996 14.6101 18.0786 14.4694 18.2194ZM22.2806 11.4694L19.2806 8.46937C19.1399 8.32864 18.949 8.24958 18.75 8.24958C18.551 8.24958 18.3601 8.32864 18.2194 8.46937C18.0786 8.6101 17.9996 8.80097 17.9996 9C17.9996 9.19902 18.0786 9.38989 18.2194 9.53062L19.9397 11.25H15C14.8011 11.25 14.6103 11.329 14.4696 11.4697C14.329 11.6103 14.25 11.8011 14.25 12C14.25 12.1989 14.329 12.3897 14.4696 12.5303C14.6103 12.671 14.8011 12.75 15 12.75H19.9397L18.2194 14.4694C18.0786 14.6101 17.9996 14.801 17.9996 15C17.9996 15.199 18.0786 15.3899 18.2194 15.5306C18.3601 15.6714 18.551 15.7504 18.75 15.7504C18.949 15.7504 19.1399 15.6714 19.2806 15.5306L22.2806 12.5306C22.3503 12.461 22.4057 12.3782 22.4434 12.2872C22.4811 12.1962 22.5006 12.0986 22.5006 12C22.5006 11.9014 22.4811 11.8038 22.4434 11.7128C22.4057 11.6217 22.3503 11.539 22.2806 11.4694ZM4.06029 12.75H8.99998C9.19889 12.75 9.38966 12.671 9.53031 12.5303C9.67096 12.3897 9.74998 12.1989 9.74998 12C9.74998 11.8011 9.67096 11.6103 9.53031 11.4697C9.38966 11.329 9.19889 11.25 8.99998 11.25H4.06029L5.7806 9.53062C5.92134 9.38989 6.0004 9.19902 6.0004 9C6.0004 8.80097 5.92134 8.6101 5.7806 8.46937C5.63987 8.32864 5.449 8.24958 5.24998 8.24958C5.05096 8.24958 4.86009 8.32864 4.71935 8.46937L1.71935 11.4694C1.64962 11.539 1.5943 11.6217 1.55656 11.7128C1.51882 11.8038 1.49939 11.9014 1.49939 12C1.49939 12.0986 1.51882 12.1962 1.55656 12.2872C1.5943 12.3782 1.64962 12.461 1.71935 12.5306L4.71935 15.5306C4.86009 15.6714 5.05096 15.7504 5.24998 15.7504C5.449 15.7504 5.63987 15.6714 5.7806 15.5306C5.92134 15.3899 6.0004 15.199 6.0004 15C6.0004 14.801 5.92134 14.6101 5.7806 14.4694L4.06029 12.75Z" fill="current"/>
</g>
</svg>
