<svg width="24" height="24" viewBox="0 0 24 24" fill="currentColor" xmlns="http://www.w3.org/2000/svg">
<g id="DWG">
<g id="Vector">
<path fill-rule="evenodd" clip-rule="evenodd" d="M2.29999 9C2.29999 8.6134 2.61339 8.3 2.99999 8.3H21C21.3866 8.3 21.7 8.6134 21.7 9C21.7 9.3866 21.3866 9.7 21 9.7H2.99999C2.61339 9.7 2.29999 9.3866 2.29999 9Z" fill="current"/>
<path fill-rule="evenodd" clip-rule="evenodd" d="M15 2.3C15.3866 2.3 15.7 2.6134 15.7 3L15.7 21C15.7 21.3866 15.3866 21.7 15 21.7C14.6134 21.7 14.3 21.3866 14.3 21L14.3 3C14.3 2.6134 14.6134 2.3 15 2.3Z" fill="current"/>
<path d="M13 8C13 7.44772 13.4477 7 14 7H16C16.5523 7 17 7.44772 17 8V10C17 10.5523 16.5523 11 16 11H14C13.4477 11 13 10.5523 13 10V8Z" fill="current"/>
</g>
</g>
</svg>
