<svg width="24" height="24" viewBox="0 0 24 24" fill="currentColor" xmlns="http://www.w3.org/2000/svg">
<g id="VolumeBox">
<path id="Vector (Stroke)" fill-rule="evenodd" clip-rule="evenodd" d="M3.74607 3.74604C4.22408 3.26803 4.8724 2.99948 5.54841 2.99948H18.5246C19.2006 2.99948 19.8489 3.26803 20.3269 3.74604C20.805 4.22405 21.0735 4.87238 21.0735 5.54839V11.1097C21.0735 11.4936 20.7623 11.8048 20.3783 11.8048C19.9944 11.8048 19.6832 11.4936 19.6832 11.1097V5.54839C19.6832 5.24111 19.5611 4.94642 19.3438 4.72914C19.1266 4.51186 18.8319 4.3898 18.5246 4.3898H5.54841C5.24113 4.3898 4.94644 4.51186 4.72916 4.72914C4.51188 4.94642 4.38982 5.24111 4.38982 5.54839V18.5247C4.38982 18.8319 4.51188 19.1266 4.72916 19.3439C4.94644 19.5612 5.24113 19.6833 5.54841 19.6833H11.1096C11.4936 19.6833 11.8048 19.9945 11.8048 20.3784C11.8048 20.7623 11.4936 21.0736 11.1096 21.0736H5.54841C4.8724 21.0736 4.22408 20.805 3.74607 20.327C3.26806 19.849 2.99951 19.2007 2.99951 18.5247V5.54839C2.99951 4.87238 3.26806 4.22405 3.74607 3.74604ZM12.907 12.9069L15.719 20.1379L16.511 17.5824C16.5109 17.5825 16.511 17.5822 16.511 17.5824C16.5889 17.3305 16.7273 17.101 16.9137 16.9146C17.1001 16.7282 17.3291 16.59 17.581 16.512M17.581 16.512L20.1382 15.719L12.907 12.9069M12.9219 11.4209C12.7127 11.3383 12.4839 11.3184 12.2636 11.3638C12.0421 11.4094 11.8388 11.5189 11.6789 11.6788C11.519 11.8387 11.4095 12.042 11.3639 12.2635C11.3185 12.4838 11.3384 12.7126 11.421 12.9218C11.4215 12.9229 11.4219 12.924 11.4223 12.9251L14.6646 21.2626C14.752 21.4861 14.9067 21.6771 15.1072 21.809C15.3078 21.9408 15.5444 22.0072 15.7843 21.9988C16.0242 21.9904 16.2555 21.9077 16.4464 21.7621C16.6373 21.6165 16.7782 21.4152 16.8497 21.1861L16.8502 21.1847L17.8391 17.9935C17.8503 17.9575 17.8701 17.9243 17.8968 17.8977C17.9234 17.871 17.9562 17.8513 17.9922 17.8401L21.1849 16.8501L21.1861 16.8497C21.4153 16.7782 21.6165 16.6372 21.7621 16.4464C21.9077 16.2555 21.9904 16.0241 21.9988 15.7842C22.0072 15.5443 21.9409 15.3077 21.809 15.1072C21.6771 14.9066 21.4862 14.7519 21.2626 14.6646L12.9252 11.4222C12.9241 11.4218 12.923 11.4214 12.9219 11.4209Z" fill="current"/>
</g>
</svg>
