<svg width="24" height="24" viewBox="0 0 24 24" fill="none" xmlns="http://www.w3.org/2000/svg">
<g id="BezierCurve">
<path id="Vector" d="M20.7253 13.5384C20.1684 11.3725 18.8305 9.48901 16.9687 8.24999H22.5C22.6989 8.24999 22.8897 8.17097 23.0303 8.03032C23.171 7.88967 23.25 7.6989 23.25 7.49999C23.25 7.30108 23.171 7.11032 23.0303 6.96966C22.8897 6.82901 22.6989 6.74999 22.5 6.74999H14.9062C14.741 6.10468 14.3657 5.53271 13.8395 5.12426C13.3133 4.71581 12.6661 4.49411 12 4.49411C11.3339 4.49411 10.6867 4.71581 10.1605 5.12426C9.63426 5.53271 9.25896 6.10468 9.09374 6.74999H1.49999C1.30107 6.74999 1.11031 6.82901 0.969656 6.96966C0.829004 7.11032 0.749987 7.30108 0.749987 7.49999C0.749987 7.6989 0.829004 7.88967 0.969656 8.03032C1.11031 8.17097 1.30107 8.24999 1.49999 8.24999H7.03124C5.16951 9.48901 3.83156 11.3725 3.27467 13.5384C2.55455 13.6533 1.90094 14.0266 1.43605 14.5884C0.971159 15.1503 0.726824 15.8622 0.748731 16.5911C0.770637 17.32 1.05729 18.0159 1.55508 18.5488C2.05287 19.0817 2.72772 19.4151 3.45344 19.4865C4.17916 19.558 4.90606 19.3626 5.49822 18.937C6.09037 18.5115 6.50724 17.8848 6.67088 17.1741C6.83451 16.4635 6.7337 15.7176 6.3873 15.0759C6.0409 14.4342 5.47262 13.9406 4.78874 13.6875C5.11075 12.5772 5.68321 11.5557 6.46206 10.7014C7.24091 9.84713 8.20538 9.18296 9.28124 8.75999C9.52195 9.27902 9.90605 9.7184 10.3883 10.0263C10.8705 10.3342 11.4307 10.4978 12.0028 10.4978C12.5749 10.4978 13.1351 10.3342 13.6173 10.0263C14.0995 9.7184 14.4837 9.27902 14.7244 8.75999C15.7992 9.18367 16.7625 9.84815 17.5404 10.7024C18.3182 11.5566 18.8898 12.5778 19.2112 13.6875C18.527 13.9398 17.9581 14.4326 17.6109 15.0739C17.2637 15.7152 17.162 16.461 17.3247 17.1718C17.4875 17.8826 17.9036 18.5099 18.4952 18.9362C19.0868 19.3625 19.8135 19.5587 20.5393 19.4882C21.2651 19.4176 21.9404 19.0851 22.4389 18.5528C22.9373 18.0205 23.2248 17.3249 23.2476 16.596C23.2704 15.8671 23.0269 15.1549 22.5627 14.5925C22.0985 14.0301 21.4453 13.6561 20.7253 13.5403V13.5384ZM5.24999 16.5C5.24999 16.7967 5.16201 17.0867 4.99719 17.3333C4.83237 17.58 4.5981 17.7723 4.32401 17.8858C4.04992 17.9993 3.74832 18.029 3.45735 17.9712C3.16638 17.9133 2.89911 17.7704 2.68933 17.5607C2.47955 17.3509 2.33669 17.0836 2.27881 16.7926C2.22093 16.5017 2.25064 16.2001 2.36417 15.926C2.4777 15.6519 2.66996 15.4176 2.91663 15.2528C3.1633 15.088 3.45331 15 3.74999 15C4.14781 15 4.52934 15.158 4.81065 15.4393C5.09195 15.7206 5.24999 16.1022 5.24999 16.5ZM12 8.99999C11.7033 8.99999 11.4133 8.91202 11.1666 8.7472C10.92 8.58238 10.7277 8.34811 10.6142 8.07402C10.5006 7.79993 10.4709 7.49833 10.5288 7.20736C10.5867 6.91639 10.7295 6.64911 10.9393 6.43933C11.1491 6.22955 11.4164 6.08669 11.7074 6.02881C11.9983 5.97094 12.2999 6.00064 12.574 6.11417C12.8481 6.2277 13.0824 6.41996 13.2472 6.66664C13.412 6.91331 13.5 7.20332 13.5 7.49999C13.5 7.89782 13.342 8.27935 13.0606 8.56065C12.7793 8.84196 12.3978 8.99999 12 8.99999ZM20.25 18C19.9533 18 19.6633 17.912 19.4166 17.7472C19.17 17.5824 18.9777 17.3481 18.8642 17.074C18.7506 16.7999 18.7209 16.4983 18.7788 16.2074C18.8367 15.9164 18.9795 15.6491 19.1893 15.4393C19.3991 15.2296 19.6664 15.0867 19.9574 15.0288C20.2483 14.9709 20.5499 15.0006 20.824 15.1142C21.0981 15.2277 21.3324 15.42 21.4972 15.6666C21.662 15.9133 21.75 16.2033 21.75 16.5C21.75 16.8978 21.592 17.2793 21.3106 17.5607C21.0293 17.842 20.6478 18 20.25 18Z" fill="currentColor"/>
</g>
</svg>
