<svg width="21" height="24" viewBox="0 0 21 24" fill="none" xmlns="http://www.w3.org/2000/svg">
<g id="Vector">
<path d="M10.0164 0.0532383L0.194231 5.85429C0.0738468 5.92527 0 6.05669 0 6.19866V17.8011C0 17.943 0.0741254 18.0744 0.194231 18.1454L10.0164 23.9468C10.1368 24.0177 10.2848 24.0177 10.4051 23.9468L20.2273 18.1454C20.3477 18.0744 20.4216 17.943 20.4216 17.8011V6.19866C20.4216 6.05669 20.3474 5.92527 20.2273 5.85429L10.4051 0.0532383C10.2848 -0.0177461 10.1368 -0.0177461 10.0164 0.0532383ZM15.7274 16.746L10.4141 13.6024C10.2937 13.5312 10.1449 13.5312 10.0245 13.6024L4.72731 16.7448C4.54172 16.8549 4.30373 16.7902 4.19617 16.6003L3.69094 15.7089C3.58338 15.519 3.64664 15.2755 3.83223 15.1655L9.13359 12.0205C9.25342 11.9495 9.32699 11.8187 9.32726 11.677L9.33451 5.43808C9.33451 5.21857 9.50896 5.04068 9.72353 5.04096L10.7309 5.0421C10.9455 5.0421 11.1194 5.22056 11.1191 5.44007L11.1118 11.6759C11.1118 11.8178 11.1857 11.9493 11.3058 12.0205L16.6208 15.1649C16.8067 15.275 16.8702 15.5181 16.7627 15.7083L16.2583 16.6003C16.1507 16.7904 15.9133 16.856 15.7274 16.746Z" fill="currentColor"/>
</g>
</svg>
