<svg width="24" height="24" viewBox="0 0 24 24" fill="none" xmlns="http://www.w3.org/2000/svg">
<g id="MagnifyingGlassMinus">
<path id="Vector" d="M14.25 10.5C14.25 10.6989 14.171 10.8897 14.0303 11.0303C13.8896 11.171 13.6989 11.25 13.5 11.25H7.49997C7.30106 11.25 7.11029 11.171 6.96964 11.0303C6.82899 10.8897 6.74997 10.6989 6.74997 10.5C6.74997 10.3011 6.82899 10.1103 6.96964 9.96967C7.11029 9.82902 7.30106 9.75 7.49997 9.75H13.5C13.6989 9.75 13.8896 9.82902 14.0303 9.96967C14.171 10.1103 14.25 10.3011 14.25 10.5ZM21.5306 21.5306C21.4609 21.6004 21.3782 21.6557 21.2872 21.6934C21.1961 21.7312 21.0985 21.7506 21 21.7506C20.9014 21.7506 20.8038 21.7312 20.7128 21.6934C20.6217 21.6557 20.539 21.6004 20.4693 21.5306L15.7762 16.8366C14.1428 18.1971 12.0478 18.8755 9.92691 18.7307C7.80604 18.5859 5.82265 17.629 4.38932 16.0591C2.95599 14.4892 2.18308 12.4272 2.23138 10.3019C2.27968 8.17666 3.14547 6.15184 4.64864 4.64867C6.15181 3.1455 8.17663 2.27971 10.3019 2.23141C12.4271 2.18311 14.4892 2.95602 16.0591 4.38935C17.629 5.82268 18.5859 7.80607 18.7307 9.92694C18.8755 12.0478 18.1971 14.1429 16.8365 15.7763L21.5306 20.4694C21.6003 20.539 21.6556 20.6217 21.6934 20.7128C21.7311 20.8038 21.7506 20.9014 21.7506 21C21.7506 21.0986 21.7311 21.1962 21.6934 21.2872C21.6556 21.3783 21.6003 21.461 21.5306 21.5306ZM10.5 17.25C11.835 17.25 13.14 16.8541 14.2501 16.1124C15.3601 15.3707 16.2253 14.3165 16.7362 13.0831C17.2471 11.8497 17.3807 10.4925 17.1203 9.18314C16.8598 7.87377 16.2169 6.67103 15.2729 5.72703C14.3289 4.78303 13.1262 4.14015 11.8168 3.8797C10.5075 3.61925 9.15026 3.75292 7.91686 4.26381C6.68346 4.77471 5.62925 5.63987 4.88755 6.7499C4.14585 7.85993 3.74997 9.16498 3.74997 10.5C3.75196 12.2896 4.46375 14.0053 5.72919 15.2708C6.99463 16.5362 8.71037 17.248 10.5 17.25Z" fill="currentColor"/>
</g>
</svg>
