<svg width="24" height="24" viewBox="0 0 24 24" fill="none" xmlns="http://www.w3.org/2000/svg">
<g id="PDF">
<g id="Vector">
<path d="M20.3905 20H3.60954C3.44788 20 3.29284 19.9356 3.17853 19.8209C3.06422 19.7062 3 19.5506 3 19.3884C3.00043 19.2265 3.06484 19.0713 3.1791 18.957C3.29336 18.8426 3.44816 18.7784 3.60954 18.7784H20.3905C20.5517 18.7784 20.7063 18.8426 20.8203 18.957C20.9343 19.0714 20.9984 19.2266 20.9984 19.3884C20.9986 19.4686 20.983 19.5481 20.9526 19.6223C20.9221 19.6965 20.8774 19.7639 20.8209 19.8207C20.7644 19.8776 20.6973 19.9227 20.6235 19.9534C20.5496 19.9842 20.4704 20 20.3905 20Z" fill="currentColor"/>
<path d="M20.3905 13.1108H3.60954C3.44816 13.1108 3.29336 13.0466 3.1791 12.9322C3.06484 12.8179 3.00043 12.6628 3 12.5008C3 12.3386 3.06422 12.183 3.17853 12.0683C3.29284 11.9536 3.44788 11.8892 3.60954 11.8892H20.3905C20.4704 11.8892 20.5496 11.905 20.6235 11.9358C20.6973 11.9666 20.7644 12.0116 20.8209 12.0684C20.8774 12.1253 20.9221 12.1927 20.9526 12.2669C20.983 12.3411 20.9986 12.4206 20.9984 12.5008C20.9984 12.6626 20.9343 12.8177 20.8203 12.9321C20.7063 13.0465 20.5517 13.1108 20.3905 13.1108Z" fill="currentColor"/>
<path d="M20.3905 16.5554H3.60954C3.44788 16.5554 3.29284 16.4909 3.17853 16.3762C3.06422 16.2615 3 16.106 3 15.9438C3.00043 15.7818 3.06484 15.6267 3.1791 15.5123C3.29336 15.398 3.44816 15.3338 3.60954 15.3338H20.3905C20.5517 15.3338 20.7063 15.3981 20.8203 15.5125C20.9343 15.6269 20.9984 15.782 20.9984 15.9438C20.9986 16.024 20.983 16.1035 20.9526 16.1777C20.9221 16.2519 20.8774 16.3193 20.8209 16.3762C20.7644 16.433 20.6973 16.478 20.6235 16.5088C20.5496 16.5396 20.4704 16.5554 20.3905 16.5554Z" fill="currentColor"/>
<path d="M13.7717 9.66619H3.60954C3.44816 9.66619 3.29336 9.60199 3.1791 9.48764C3.06484 9.3733 3.00043 9.21814 3 9.05621C3 8.894 3.06422 8.73844 3.17853 8.62374C3.29284 8.50904 3.44788 8.4446 3.60954 8.4446H13.7717C13.9331 8.44503 14.0877 8.50965 14.2017 8.6243C14.3156 8.73895 14.3796 8.89428 14.3796 9.05621C14.3792 9.21785 14.315 9.37274 14.2011 9.48705C14.0872 9.60135 13.9328 9.66576 13.7717 9.66619Z" fill="currentColor"/>
<path d="M13.7717 6.22161H3.60954C3.44816 6.22161 3.29336 6.15737 3.1791 6.04303C3.06484 5.92868 3.00043 5.77356 3 5.61163C3 5.44942 3.06422 5.29382 3.17853 5.17912C3.29284 5.06442 3.44788 5.00002 3.60954 5.00002H13.7717C13.9331 5.00045 14.0877 5.06507 14.2017 5.17972C14.3156 5.29437 14.3796 5.4497 14.3796 5.61163C14.3792 5.77328 14.315 5.92817 14.2011 6.04247C14.0872 6.15677 13.9328 6.22118 13.7717 6.22161Z" fill="currentColor"/>
<path d="M20.093 5H17.2193C16.7183 5 16.3123 5.40746 16.3123 5.91008V8.79362C16.3123 9.29625 16.7183 9.7037 17.2193 9.7037H20.093C20.5939 9.7037 21 9.29625 21 8.79362V5.91008C21 5.40746 20.5939 5 20.093 5Z" fill="currentColor"/>
</g>
</g>
</svg>
