<svg width="24" height="24" viewBox="0 0 24 24" fill="none" xmlns="http://www.w3.org/2000/svg">
<g id="Retry">
<path id="Vector" d="M22.5 5.25V9.75C22.5 9.94891 22.421 10.1397 22.2803 10.2803C22.1397 10.421 21.9489 10.5 21.75 10.5H17.25C17.0511 10.5 16.8603 10.421 16.7197 10.2803C16.579 10.1397 16.5 9.94891 16.5 9.75C16.5 9.55108 16.579 9.36032 16.7197 9.21967C16.8603 9.07901 17.0511 9 17.25 9H19.8188L17.3259 6.71625L17.3025 6.69375C16.2601 5.65171 14.9337 4.93992 13.4891 4.64732C12.0445 4.35472 10.5457 4.49426 9.17991 5.04853C7.81414 5.60279 6.64197 6.5472 5.80982 7.76377C4.97768 8.98035 4.52245 10.4152 4.501 11.8889C4.47956 13.3627 4.89286 14.8102 5.68926 16.0504C6.48566 17.2907 7.62986 18.2688 8.97892 18.8626C10.328 19.4563 11.8221 19.6394 13.2746 19.389C14.7271 19.1385 16.0736 18.4656 17.1459 17.4544C17.2905 17.3176 17.4835 17.2439 17.6825 17.2494C17.8814 17.255 18.07 17.3393 18.2067 17.4839C18.3435 17.6285 18.4172 17.8215 18.4117 18.0204C18.4061 18.2193 18.3218 18.4079 18.1772 18.5447C16.5098 20.126 14.298 21.0052 12 21H11.8763C10.4023 20.9798 8.95579 20.5979 7.66398 19.8877C6.37216 19.1776 5.27455 18.161 4.46762 16.9274C3.6607 15.6937 3.16915 14.2807 3.0362 12.8126C2.90324 11.3445 3.13294 9.86614 3.70511 8.50758C4.27728 7.14902 5.1744 5.9518 6.31762 5.02115C7.46085 4.09049 8.81517 3.4549 10.2616 3.17024C11.7079 2.88557 13.2021 2.96055 14.6127 3.38858C16.0234 3.8166 17.3073 4.58458 18.3516 5.625L21 8.04375V5.25C21 5.05108 21.079 4.86032 21.2197 4.71967C21.3603 4.57901 21.5511 4.5 21.75 4.5C21.9489 4.5 22.1397 4.57901 22.2803 4.71967C22.421 4.86032 22.5 5.05108 22.5 5.25Z" fill="currentColor"/>
</g>
</svg>
