<svg width="24" height="24" viewBox="0 0 24 24" fill="none" xmlns="http://www.w3.org/2000/svg">
<g id="Triangle">
<path id="Vector" d="M5.99113 21.8256L20.2289 13.6271C20.5778 13.4223 20.867 13.1298 21.068 12.7787C21.2689 12.4276 21.3746 12.0301 21.3746 11.6256C21.3746 11.221 21.2689 10.8235 21.068 10.4724C20.867 10.1214 20.5778 9.82889 20.2289 9.62402L5.99113 1.42558C5.65374 1.22846 5.27002 1.12457 4.87926 1.12457C4.48851 1.12457 4.10477 1.22846 3.76739 1.42558C3.41639 1.62775 3.12554 1.91971 2.9247 2.27147C2.72386 2.62323 2.62027 3.02211 2.62457 3.42714L2.62457 19.824C2.6206 20.2287 2.72435 20.6272 2.92517 20.9786C3.12599 21.33 3.41667 21.6217 3.76738 21.8237C4.10461 22.0211 4.48825 22.1253 4.879 22.1256C5.26976 22.126 5.65358 22.0224 5.99113 21.8256ZM4.51832 20.5253C4.3964 20.4538 4.29568 20.3512 4.22649 20.228C4.1573 20.1047 4.12212 19.9653 4.12457 19.824L4.12457 3.42714C4.12213 3.28584 4.1573 3.14643 4.22649 3.0232C4.29568 2.89997 4.3964 2.79736 4.51832 2.72589C4.62793 2.66115 4.7529 2.627 4.8802 2.627C5.0075 2.627 5.13247 2.66115 5.24207 2.72589L19.4799 10.9243C19.6012 10.9972 19.7016 11.1003 19.7713 11.2235C19.841 11.3467 19.8777 11.4859 19.8777 11.6275C19.8777 11.769 19.841 11.9082 19.7713 12.0314C19.7016 12.1546 19.6012 12.2577 19.4799 12.3306L5.24207 20.529C5.13213 20.5932 5.00698 20.6267 4.87968 20.626C4.75238 20.6254 4.62759 20.5906 4.51832 20.5253Z" fill="currentColor"/>
</g>
</svg>
